<?xml version="1.0" encoding="UTF-8" standalone="no"?>
<!-- Created with Inkscape (http://www.inkscape.org/) -->

<svg
   width="112.12897"
   height="27.213442"
   viewBox="0 0 112.12897 27.213441"
   version="1.1"
   id="svg849"
   inkscape:version="1.2.1 (9c6d41e410, 2022-07-14)"
   sodipodi:docname="flathub-logo-toolbar.svg"
   xmlns:inkscape="http://www.inkscape.org/namespaces/inkscape"
   xmlns:sodipodi="http://sodipodi.sourceforge.net/DTD/sodipodi-0.dtd"
   xmlns="http://www.w3.org/2000/svg"
   xmlns:svg="http://www.w3.org/2000/svg"
   xmlns:rdf="http://www.w3.org/1999/02/22-rdf-syntax-ns#"
   xmlns:cc="http://creativecommons.org/ns#"
   xmlns:dc="http://purl.org/dc/elements/1.1/">
  <defs
     id="defs843">
    <inkscape:path-effect
       effect="fillet_chamfer"
       id="path-effect503"
       is_visible="true"
       lpeversion="1"
       nodesatellites_param="F,0,0,1,0,4.2333333,0,1 @ F,0,0,1,0,4.2333333,0,1 @ F,0,0,1,0,4.2333333,0,1 @ F,0,0,1,0,4.2333333,0,1 @ F,0,0,1,0,4.2333333,0,1 @ F,0,0,1,0,4.2333333,0,1"
       unit="px"
       method="auto"
       mode="F"
       radius="16"
       chamfer_steps="1"
       flexible="false"
       use_knot_distance="true"
       apply_no_radius="true"
       apply_with_radius="true"
       only_selected="false"
       hide_knots="false" />
  </defs>
  <sodipodi:namedview
     id="base"
     pagecolor="#4a86cf"
     bordercolor="#666666"
     borderopacity="1.0"
     inkscape:pageopacity="0"
     inkscape:pageshadow="2"
     inkscape:zoom="5.8936459"
     inkscape:cx="42.927587"
     inkscape:cy="22.397002"
     inkscape:document-units="px"
     inkscape:current-layer="layer1"
     showgrid="false"
     units="px"
     inkscape:showpageshadow="false"
     borderlayer="true"
     inkscape:window-width="1920"
     inkscape:window-height="1011"
     inkscape:window-x="0"
     inkscape:window-y="0"
     inkscape:window-maximized="1"
     fit-margin-top="0"
     fit-margin-left="0"
     fit-margin-right="0"
     fit-margin-bottom="0"
     inkscape:pagecheckerboard="1"
     inkscape:deskcolor="#4a86cf">
    <inkscape:grid
       type="xygrid"
       id="grid1472"
       originx="-4.1943225"
       originy="-4.1869999" />
  </sodipodi:namedview>
  <metadata
     id="metadata846">
    <rdf:RDF>
      <cc:Work
         rdf:about="">
        <dc:format>image/svg+xml</dc:format>
        <dc:type
           rdf:resource="http://purl.org/dc/dcmitype/StillImage" />
      </cc:Work>
    </rdf:RDF>
  </metadata>
  <g
     inkscape:label="Layer 1"
     inkscape:groupmode="layer"
     id="layer1"
     transform="translate(-4.1943224,-354.54445)">
    <g
       id="g932"
       style="fill:#ffffff"
       transform="matrix(0.70592054,0,0,0.70592054,-106.98893,293.61112)">
      <circle
         style="fill:#ffffff;stroke-width:0.264583"
         id="circle485"
         cx="166.68752"
         cy="95.646584"
         r="8.7312498" />
      <rect
         style="fill:#ffffff;stroke-width:0.264583"
         id="rect487"
         width="15.875"
         height="15.875"
         x="158.75002"
         y="108.87577"
         rx="4.2333331"
         ry="4.2333331" />
      <path
         sodipodi:type="star"
         style="fill:#ffffff;stroke-width:0.264583"
         id="path489"
         inkscape:flatsided="false"
         sodipodi:sides="3"
         sodipodi:cx="63.5"
         sodipodi:cy="52.916664"
         sodipodi:r1="11.832526"
         sodipodi:r2="5.9162631"
         sodipodi:arg1="0.52359878"
         sodipodi:arg2="1.5707963"
         inkscape:rounded="0"
         inkscape:randomized="0"
         d="m 69.513935,58.832927 -1.780602,0 -10.247268,0 a 2.4441161,2.4441161 60 0 1 -2.116667,-3.666174 l 0.890301,-1.542046 5.123634,-8.874395 a 2.4441161,2.4441161 2.5219902e-7 0 1 4.233334,0 l 0.8903,1.542046 5.123635,8.874395 a 2.4441161,2.4441161 120 0 1 -2.116667,3.666174 z"
         transform="matrix(0.8720458,0.50347591,0.50347591,-0.8720458,104.0499,109.88882)"
         inkscape:transform-center-x="-2.9786984"
         inkscape:path-effect="#path-effect503" />
      <path
         id="rect348-2"
         style="fill:#ffffff;stroke-width:2.64583"
         transform="rotate(90)"
         d="m 116.31115,-194.99159 c 0.87946,0 1.58748,0.70801 1.58748,1.58747 v 12.70005 c 0,0.87946 -0.70802,1.58748 -1.58748,1.58748 -0.87946,0 -1.58747,-0.70802 -1.58747,-1.58748 v -12.70005 c 0,-0.87946 0.70801,-1.58747 1.58747,-1.58747 z m -7.93748,7.9375 c 0,-0.87946 0.70802,-1.58748 1.58749,-1.58748 h 12.70003 c 0.87946,0 1.58748,0.70802 1.58748,1.58748 0,0.87947 -0.70802,1.58749 -1.58748,1.58749 h -12.70003 c -0.87947,0 -1.58749,-0.70802 -1.58749,-1.58749 z" />
    </g>
    <g
       aria-label="App Hub"
       id="text499-3"
       style="font-size:18.3975px;font-family:Inter;-inkscape-font-specification:'Inter, @wght=600';font-variation-settings:'wght' 600;fill:#ffffff;stroke-width:1.85508">
      <path
         d="m 42.635023,374.68335 h -2.587148 l 4.710439,-13.38 h 2.992207 l 4.716973,13.38 H 49.880345 L 46.306683,364.0473 h -0.104531 z m 0.08493,-5.24616 h 7.055859 v 1.94689 h -7.055859 z"
         id="path1972" />
      <path
         d="m 54.126908,378.44647 v -13.79812 h 2.325821 v 1.65943 h 0.137197 q 0.18293,-0.36586 0.516123,-0.77745 0.333193,-0.41812 0.901582,-0.71212 0.568389,-0.30052 1.450371,-0.30052 1.16291,0 2.097158,0.59452 0.940781,0.58799 1.48957,1.74436 0.555322,1.14985 0.555322,2.82235 0,1.6529 -0.542255,2.80927 -0.542256,1.15638 -1.476504,1.76397 -0.934248,0.60759 -2.116758,0.60759 -0.862383,0 -1.430771,-0.28746 -0.568389,-0.28747 -0.914649,-0.69252 -0.339726,-0.4116 -0.529189,-0.77746 h -0.098 v 5.34416 z m 2.319287,-8.78062 q 0,0.97345 0.274395,1.70517 0.280928,0.73171 0.803584,1.14331 0.529189,0.40505 1.280508,0.40505 0.783984,0 1.313173,-0.41812 0.52919,-0.42466 0.797051,-1.15638 0.274395,-0.73825 0.274395,-1.67903 0,-0.93425 -0.267862,-1.65943 -0.267861,-0.72519 -0.79705,-1.13678 -0.52919,-0.41159 -1.319707,-0.41159 -0.757852,0 -1.287041,0.39852 -0.52919,0.39853 -0.803584,1.11718 -0.267862,0.71865 -0.267862,1.6921 z"
         id="path1974" />
      <path
         d="m 65.618782,378.44647 v -13.79812 h 2.32582 v 1.65943 H 68.0818 q 0.182929,-0.36586 0.516123,-0.77745 0.333193,-0.41812 0.901582,-0.71212 0.568388,-0.30052 1.450371,-0.30052 1.16291,0 2.097158,0.59452 0.940781,0.58799 1.48957,1.74436 0.555322,1.14985 0.555322,2.82235 0,1.6529 -0.542256,2.80927 -0.542255,1.15638 -1.476503,1.76397 -0.934248,0.60759 -2.116758,0.60759 -0.862383,0 -1.430772,-0.28746 -0.568388,-0.28747 -0.914648,-0.69252 -0.339727,-0.4116 -0.529189,-0.77746 h -0.098 v 5.34416 z m 2.319287,-8.78062 q 0,0.97345 0.274395,1.70517 0.280927,0.73171 0.803584,1.14331 0.529189,0.40505 1.280507,0.40505 0.783985,0 1.313174,-0.41812 0.52919,-0.42466 0.797051,-1.15638 0.274394,-0.73825 0.274394,-1.67903 0,-0.93425 -0.267861,-1.65943 -0.267861,-0.72519 -0.797051,-1.13678 -0.529189,-0.41159 -1.319707,-0.41159 -0.757851,0 -1.287041,0.39852 -0.529189,0.39853 -0.803584,1.11718 -0.267861,0.71865 -0.267861,1.6921 z"
         id="path1976" />
      <path
         d="m 81.781896,374.68335 v -13.38 h 2.423818 v 5.66429 h 6.200009 v -5.66429 h 2.430352 v 13.38 h -2.430352 v -5.68389 h -6.200009 v 5.68389 z"
         id="path1978" />
      <path
         d="m 101.7604,370.4629 v -5.81455 h 2.36502 v 10.035 h -2.29316 v -1.78356 h -0.10453 q -0.33973,0.84278 -1.11718,1.3785 -0.770915,0.53572 -1.901159,0.53572 -0.986513,0 -1.744365,-0.43772 -0.751318,-0.44426 -1.175976,-1.28704 -0.424659,-0.84932 -0.424659,-2.05143 v -6.38947 h 2.36502 v 6.02361 q 0,0.95385 0.522656,1.51571 0.522656,0.56185 1.371973,0.56185 0.52266,0 1.01265,-0.25479 0.48999,-0.2548 0.80358,-0.75785 0.32013,-0.50959 0.32013,-1.27398 z"
         id="path1980" />
      <path
         d="m 106.66028,374.68335 v -13.38 h 2.36502 v 5.00443 h 0.098 q 0.18293,-0.36586 0.51612,-0.77745 0.3332,-0.41812 0.90159,-0.71212 0.56838,-0.30052 1.45037,-0.30052 1.16291,0 2.09715,0.59452 0.94079,0.58799 1.48957,1.74436 0.55533,1.14985 0.55533,2.82235 0,1.6529 -0.54226,2.80927 -0.54225,1.15638 -1.4765,1.76397 -0.93425,0.60759 -2.11676,0.60759 -0.86238,0 -1.43077,-0.28746 -0.56839,-0.28747 -0.91465,-0.69252 -0.33973,-0.4116 -0.52919,-0.77746 h -0.1372 v 1.58104 z m 2.31929,-5.0175 q 0,0.97345 0.27439,1.70517 0.28093,0.73171 0.80359,1.14331 0.52919,0.40505 1.28051,0.40505 0.78398,0 1.31317,-0.41812 0.52919,-0.42466 0.79705,-1.15638 0.2744,-0.73825 0.2744,-1.67903 0,-0.93425 -0.26787,-1.65943 -0.26786,-0.72519 -0.79705,-1.13678 -0.52919,-0.41159 -1.3197,-0.41159 -0.75786,0 -1.28704,0.39852 -0.52919,0.39853 -0.80359,1.11718 -0.26786,0.71865 -0.26786,1.6921 z"
         id="path1982" />
    </g>
  </g>
</svg>
